<?xml version="1.0" encoding="iso-8859-1"?>
<!-- Generator: Adobe Illustrator 19.0.0, SVG Export Plug-In . SVG Version: 6.00 Build 0)  -->
<svg version="1.1" id="Capa_1" xmlns="http://www.w3.org/2000/svg" xmlns:xlink="http://www.w3.org/1999/xlink" x="0px" y="0px"
	 viewBox="0 0 490.668 490.668" style="enable-background:new 0 0 490.668 490.668;" xml:space="preserve">
<g>
	<g>
		<path d="M245.326,362.668c-17.643,0-32,14.357-32,32c0,17.643,14.357,32,32,32s32-14.357,32-32
			C277.326,377.025,262.969,362.668,245.326,362.668z M245.326,405.334c-5.867,0-10.667-4.8-10.667-10.667
			c0-5.867,4.8-10.667,10.667-10.667s10.667,4.8,10.667,10.667C255.993,400.534,251.193,405.334,245.326,405.334z"/>
	</g>
</g>
<g>
	<g>
		<path d="M333.348,308.886c-24.704-20.352-55.979-31.552-88.021-31.552s-63.317,11.2-88,31.552
			c-4.565,3.733-5.205,10.453-1.451,14.997c3.733,4.544,10.453,5.227,14.997,1.451c41.835-34.368,107.115-34.368,148.949,0
			c1.963,1.643,4.373,2.432,6.763,2.432c3.051,0,6.123-1.323,8.213-3.883C338.553,319.34,337.913,312.62,333.348,308.886z"/>
	</g>
</g>
<g>
	<g>
		<path d="M411.086,235.478c-45.504-41.792-104.384-64.811-165.76-64.811s-120.256,23.019-165.76,64.811
			c-4.352,3.968-4.629,10.731-0.64,15.061c3.989,4.352,10.773,4.608,15.061,0.64c41.579-38.165,95.317-59.179,151.339-59.179
			s109.76,21.013,151.339,59.179c2.048,1.877,4.629,2.816,7.211,2.816c2.859,0,5.739-1.152,7.851-3.456
			C415.715,246.209,415.438,239.467,411.086,235.478z"/>
	</g>
</g>
<g>
	<g>
		<path d="M487.353,161.174c-65.856-62.677-151.808-97.173-242.027-97.173c-90.261,0-176.213,34.389-241.984,96.832
			c-4.309,4.032-4.459,10.795-0.405,15.061c4.032,4.309,10.816,4.437,15.061,0.405c61.824-58.645,142.549-90.965,227.328-90.965
			c84.736,0,165.461,32.427,227.307,91.285c2.069,1.963,4.715,2.944,7.36,2.944c2.816,0,5.632-1.109,7.744-3.307
			C491.79,171.99,491.62,165.227,487.353,161.174z"/>
	</g>
</g>
<g>
</g>
<g>
</g>
<g>
</g>
<g>
</g>
<g>
</g>
<g>
</g>
<g>
</g>
<g>
</g>
<g>
</g>
<g>
</g>
<g>
</g>
<g>
</g>
<g>
</g>
<g>
</g>
<g>
</g>
</svg>
