<svg height="512pt" viewBox="0 -1 512 512" width="512pt" xmlns="http://www.w3.org/2000/svg"><path d="m512 469.453125v40h-512v-40zm-226.820312-331c53.328124 0 96.710937 43.382813 96.710937 96.710937 0 25.84375-10.125 49.941407-28.511719 67.855469-18.15625 17.691407-42.375 27.429688-68.199218 27.429688h-95.070313v99h-40v-291h135.070313zm0 40h-95.070313v112h95.070313c31.800781 0 56.710937-24.285156 56.710937-55.289063 0-31.269531-25.441406-56.710937-56.710937-56.710937zm-27.679688-133.546875 234.878906 120.347656 18.242188-35.601562-253.046875-129.652344-255.132813 129.621094 18.117188 35.660156zm0 0"/></svg>