<?xml version="1.0" encoding="iso-8859-1"?>
<!-- Generator: Adobe Illustrator 19.0.0, SVG Export Plug-In . SVG Version: 6.00 Build 0)  -->
<svg version="1.1" id="Capa_1" xmlns="http://www.w3.org/2000/svg" xmlns:xlink="http://www.w3.org/1999/xlink" x="0px" y="0px"
	 viewBox="0 0 512 512" style="enable-background:new 0 0 512 512;" xml:space="preserve">
<g>
	<g>
		<g>
			<path d="M392.533,0H119.467C95.914,0.028,76.828,19.114,76.8,42.667V435.2c0.028,20.265,14.283,37.724,34.133,41.804v26.462
				c0,4.713,3.82,8.533,8.533,8.533H153.6c4.713,0,8.533-3.82,8.533-8.533v-25.6h187.733v25.6c0,4.713,3.82,8.533,8.533,8.533
				h34.133c4.713,0,8.533-3.82,8.533-8.533v-26.462c19.85-4.08,34.106-21.539,34.133-41.804V42.667
				C435.172,19.114,416.086,0.028,392.533,0z M145.067,494.933H128v-17.067h17.067V494.933z M384,494.933h-17.067v-17.067H384
				V494.933z M418.133,435.2c-0.015,14.132-11.468,25.585-25.6,25.6H119.467c-14.132-0.015-25.585-11.468-25.6-25.6V42.667
				c0.015-14.132,11.468-25.585,25.6-25.6h273.067c14.132,0.015,25.585,11.468,25.6,25.6V435.2z"/>
			<path d="M392.533,34.133H119.467c-4.713,0-8.533,3.82-8.533,8.533V435.2c0,4.713,3.82,8.533,8.533,8.533h273.067
				c4.713,0,8.533-3.82,8.533-8.533V42.667C401.067,37.954,397.246,34.133,392.533,34.133z M247.467,426.667H128V51.2h119.467
				V426.667z M384,426.667H264.533V51.2H384V426.667z"/>
			<path d="M204.8,273.067c14.138,0,25.6-11.461,25.6-25.6c-0.015-14.132-11.468-25.585-25.6-25.6c-14.138,0-25.6,11.461-25.6,25.6
				S190.662,273.067,204.8,273.067z M204.8,238.933c4.713,0,8.533,3.82,8.533,8.533c-0.006,4.71-3.823,8.527-8.533,8.533
				c-4.713,0-8.533-3.82-8.533-8.533S200.087,238.933,204.8,238.933z"/>
			<path d="M307.2,273.067c14.138,0,25.6-11.461,25.6-25.6s-11.461-25.6-25.6-25.6s-25.6,11.461-25.6,25.6
				C281.615,261.599,293.068,273.051,307.2,273.067z M307.2,238.933c4.713,0,8.533,3.82,8.533,8.533S311.913,256,307.2,256
				s-8.533-3.82-8.533-8.533C298.673,242.756,302.49,238.939,307.2,238.933z"/>
		</g>
	</g>
</g>
<g>
</g>
<g>
</g>
<g>
</g>
<g>
</g>
<g>
</g>
<g>
</g>
<g>
</g>
<g>
</g>
<g>
</g>
<g>
</g>
<g>
</g>
<g>
</g>
<g>
</g>
<g>
</g>
<g>
</g>
</svg>
