<?xml version="1.0" encoding="iso-8859-1"?>
<!-- Generator: Adobe Illustrator 19.0.0, SVG Export Plug-In . SVG Version: 6.00 Build 0)  -->
<svg version="1.1" id="Layer_1" xmlns="http://www.w3.org/2000/svg" xmlns:xlink="http://www.w3.org/1999/xlink" x="0px" y="0px"
	 viewBox="0 0 512.002 512.002" style="enable-background:new 0 0 512.002 512.002;" xml:space="preserve">
<g>
	<g>
		<path d="M501.143,279.568c-1.652-1.031-36.914-22.745-81.515-30.018c7.081-44.362-2.325-84.382-2.925-86.853l-3.017-12.432
			l-12.754,0.998c-1.925,0.15-42.5,3.552-82.377,23.706c-20.314-39.496-50.897-65.926-52.816-67.559L256,99.117l-9.739,8.293
			c-1.919,1.633-32.502,28.065-52.816,67.559c-39.878-20.153-80.453-23.555-82.377-23.706l-12.754-0.998l-3.017,12.432
			c-0.6,2.471-10.007,42.491-2.925,86.853c-44.601,7.273-79.862,28.987-81.515,30.018L0,286.336l4.952,11.795
			c1.468,3.497,36.773,85.903,108.065,108.575c13.828,4.398,27.845,6.179,41.487,6.179c42.931-0.001,82.107-17.643,99.726-26.911
			l1.77,1.506l1.769-1.506c17.619,9.27,56.793,26.912,99.727,26.91c13.639-0.001,27.663-1.783,41.487-6.179
			c71.293-22.673,106.597-105.079,108.065-108.575l4.952-11.795L501.143,279.568z M122.122,378.075
			c-43.396-13.801-71.806-57.897-83.462-79.467c13.061-6.486,35.568-16.039,60.957-19.782c4.24,12.244,10.126,24.271,18.193,35.396
			c23.695,32.681,60.606,49.947,90.17,58.969C183.689,381.454,151.763,387.502,122.122,378.075z M142.133,296.588
			c-26.722-36.855-23.419-89.183-19.997-113.469c14.184,2.519,37.525,8.085,59.797,19.721c-3.959,12.727-6.391,26.302-6.391,40.46
			c0,40.024,19.415,75.409,37.913,100.044C189.101,335.5,160.152,321.441,142.133,296.588z M255.979,346.92
			c-17.036-17.599-50.393-57.9-50.393-103.62c0.001-45.539,33.413-85.976,50.434-103.62c17.036,17.599,50.393,57.9,50.393,103.62
			C306.413,288.838,273.002,329.276,255.979,346.92z M336.458,243.299c0-14.158-2.433-27.733-6.391-40.46
			c22.288-11.645,45.651-17.212,59.826-19.727c3.462,24.245,6.813,76.459-20.026,113.476c-18.02,24.854-46.971,38.914-71.323,46.755
			C317.043,318.709,336.458,283.324,336.458,243.299z M389.878,378.075c-29.498,9.381-61.424,3.335-85.753-4.915
			c29.547-9.032,66.399-26.295,90.065-58.937c8.065-11.123,13.95-23.149,18.19-35.392c25.304,3.747,47.88,13.325,60.974,19.811
			C461.748,320.21,433.45,364.219,389.878,378.075z"/>
	</g>
</g>
<g>
</g>
<g>
</g>
<g>
</g>
<g>
</g>
<g>
</g>
<g>
</g>
<g>
</g>
<g>
</g>
<g>
</g>
<g>
</g>
<g>
</g>
<g>
</g>
<g>
</g>
<g>
</g>
<g>
</g>
</svg>
