<svg id="icons" enable-background="new 0 0 64 64" height="512" viewBox="0 0 64 64" width="512" xmlns="http://www.w3.org/2000/svg"><g><g><path d="m50 20c-.553 0-1-.447-1-1 0-9.374-7.626-17-17-17s-17 7.626-17 17c0 .553-.447 1-1 1s-1-.447-1-1c0-10.477 8.523-19 19-19s19 8.523 19 19c0 .553-.447 1-1 1z"/></g><g><path d="m58 40h-52c-.553 0-1-.447-1-1s.447-1 1-1h52c.553 0 1 .447 1 1s-.447 1-1 1z"/></g><g><path d="m52 61h-39.999c-.553 0-1-.447-1-1s.447-1 1-1h39.999c.553 0 1 .447 1 1s-.447 1-1 1z"/></g><g><path d="m14.001 64c-1.654 0-3-1.346-3-3 0-.553.447-1 1-1s1 .447 1 1c0 .552.448 1 1 1 .553 0 1 .447 1 1s-.447 1-1 1z"/></g><g><path d="m12.001 62c-.553 0-1-.447-1-1v-1c0-.553.447-1 1-1s1 .447 1 1v1c0 .553-.447 1-1 1z"/></g><g><path d="m50 64c-.553 0-1-.447-1-1s.447-1 1-1c.552 0 1-.448 1-1 0-.553.447-1 1-1s1 .447 1 1c0 1.654-1.346 3-3 3z"/></g><g><path d="m52 62c-.553 0-1-.447-1-1v-1c0-.553.447-1 1-1s1 .447 1 1v1c0 .553-.447 1-1 1z"/></g><g><path d="m50 64h-35.999c-.553 0-1-.447-1-1s.447-1 1-1h35.999c.553 0 1 .447 1 1s-.447 1-1 1z"/></g><g><path d="m14 40c-.553 0-1-.447-1-1v-20c0-.553.447-1 1-1s1 .447 1 1v20c0 .553-.447 1-1 1z"/></g><g><path d="m50 40c-.553 0-1-.447-1-1v-20c0-.553.447-1 1-1s1 .447 1 1v20c0 .553-.447 1-1 1z"/></g><g><path d="m32 15c-.553 0-1-.447-1-1v-13c0-.553.447-1 1-1s1 .447 1 1v13c0 .553-.447 1-1 1z"/></g><g><g><path d="m14 33c-.553 0-1-.447-1-1s.447-1 1-1c9.374 0 17-7.626 17-17 0-.553.447-1 1-1s1 .447 1 1c0 10.477-8.523 19-19 19z"/></g><g><path d="m50 33c-10.477 0-19-8.523-19-19 0-.553.447-1 1-1s1 .447 1 1c0 9.374 7.626 17 17 17 .553 0 1 .447 1 1s-.447 1-1 1z"/></g><g><path d="m44 40c-.553 0-1-.447-1-1v-8.024c0-.553.447-1 1-1s1 .447 1 1v8.024c0 .553-.447 1-1 1z"/></g><g><path d="m20 40c-.553 0-1-.447-1-1v-8.024c0-.553.447-1 1-1s1 .447 1 1v8.024c0 .553-.447 1-1 1z"/></g></g><g><path d="m12 61c-2.757 0-5-2.243-5-5 0-.553.447-1 1-1s1 .447 1 1c0 1.654 1.346 3 3 3 .553 0 1 .447 1 1s-.447 1-1 1z"/></g><g><path d="m16 61c-2.757 0-5-2.243-5-5 0-.553.447-1 1-1s1 .447 1 1c0 1.654 1.346 3 3 3 .553 0 1 .447 1 1s-.447 1-1 1z"/></g><g><path d="m20 61c-2.757 0-5-2.243-5-5 0-.553.447-1 1-1s1 .447 1 1c0 1.654 1.346 3 3 3 .553 0 1 .447 1 1s-.447 1-1 1z"/></g><g><path d="m24 61c-2.757 0-5-2.243-5-5 0-.553.447-1 1-1s1 .447 1 1c0 1.654 1.346 3 3 3 .553 0 1 .447 1 1s-.447 1-1 1z"/></g><g><path d="m28 61c-2.757 0-5-2.243-5-5 0-.553.447-1 1-1s1 .447 1 1c0 1.654 1.346 3 3 3 .553 0 1 .447 1 1s-.447 1-1 1z"/></g><g><path d="m32 61c-2.757 0-5-2.243-5-5 0-.553.447-1 1-1s1 .447 1 1c0 1.654 1.346 3 3 3 .553 0 1 .447 1 1s-.447 1-1 1z"/></g><g><path d="m48.002 61c-.553 0-1-.447-1-1s.447-1 1-1c1.654 0 3-1.346 3-3 0-.553.447-1 1-1s1 .447 1 1c0 2.757-2.243 5-5 5z"/></g><g><path d="m44.002 61c-.553 0-1-.447-1-1s.447-1 1-1c1.654 0 3-1.346 3-3 0-.553.447-1 1-1s1 .447 1 1c0 2.757-2.243 5-5 5z"/></g><g><path d="m40.002 61c-.553 0-1-.447-1-1s.447-1 1-1c1.654 0 3-1.346 3-3 0-.553.447-1 1-1s1 .447 1 1c0 2.757-2.243 5-5 5z"/></g><g><path d="m36.002 61c-.553 0-1-.447-1-1s.447-1 1-1c1.654 0 3-1.346 3-3 0-.553.447-1 1-1s1 .447 1 1c0 2.757-2.243 5-5 5z"/></g><g><path d="m32.002 61c-.553 0-1-.447-1-1s.447-1 1-1c1.654 0 3-1.346 3-3 0-.553.447-1 1-1s1 .447 1 1c0 2.757-2.243 5-5 5z"/></g><g><path d="m8 57c-.553 0-1-.447-1-1v-19.006c0-.553.447-1 1-1s1 .447 1 1v19.006c0 .553-.447 1-1 1z"/></g><g><path d="m6 39.996c-1.654 0-3-1.346-3-3s1.346-3 3-3 3 1.346 3 3c0 .553-.447 1-1 1s-1-.447-1-1c0-.552-.448-1-1-1s-1 .448-1 1 .448 1 1 1c.553 0 1 .447 1 1s-.447 1-1 1z"/></g><g><path d="m52 61c-.553 0-1-.447-1-1s.447-1 1-1c1.654 0 3-1.346 3-3 0-.553.447-1 1-1s1 .447 1 1c0 2.757-2.243 5-5 5z"/></g><g><path d="m56 57c-.553 0-1-.447-1-1v-19.006c0-.553.447-1 1-1s1 .447 1 1v19.006c0 .553-.447 1-1 1z"/></g><g><path d="m58 39.996c-.553 0-1-.447-1-1s.447-1 1-1c.552 0 1-.448 1-1s-.448-1-1-1-1 .448-1 1c0 .553-.447 1-1 1s-1-.447-1-1c0-1.654 1.346-3 3-3s3 1.346 3 3-1.346 3-3 3z"/></g><g><path d="m12 57c-.553 0-1-.447-1-1v-17c0-.553.447-1 1-1s1 .447 1 1v17c0 .553-.447 1-1 1z"/></g><g><path d="m16 57c-.553 0-1-.447-1-1v-17c0-.553.447-1 1-1s1 .447 1 1v17c0 .553-.447 1-1 1z"/></g><g><path d="m20 57c-.553 0-1-.447-1-1v-17c0-.553.447-1 1-1s1 .447 1 1v17c0 .553-.447 1-1 1z"/></g><g><path d="m24 57c-.553 0-1-.447-1-1v-17.004c0-.553.447-1 1-1s1 .447 1 1v17.004c0 .553-.447 1-1 1z"/></g><g><path d="m28 57c-.553 0-1-.447-1-1v-17.004c0-.553.447-1 1-1s1 .447 1 1v17.004c0 .553-.447 1-1 1z"/></g><g><path d="m32 57c-.553 0-1-.447-1-1v-17.004c0-.553.447-1 1-1s1 .447 1 1v17.004c0 .553-.447 1-1 1z"/></g><g><path d="m36 57c-.553 0-1-.447-1-1v-17.004c0-.553.447-1 1-1s1 .447 1 1v17.004c0 .553-.447 1-1 1z"/></g><g><path d="m40 57c-.553 0-1-.447-1-1v-17.004c0-.553.447-1 1-1s1 .447 1 1v17.004c0 .553-.447 1-1 1z"/></g><g><path d="m44 57c-.553 0-1-.447-1-1v-17.004c0-.553.447-1 1-1s1 .447 1 1v17.004c0 .553-.447 1-1 1z"/></g><g><path d="m48 57c-.553 0-1-.447-1-1v-17.004c0-.553.447-1 1-1s1 .447 1 1v17.004c0 .553-.447 1-1 1z"/></g><g><path d="m52 57c-.553 0-1-.447-1-1v-17.004c0-.553.447-1 1-1s1 .447 1 1v17.004c0 .553-.447 1-1 1z"/></g></g></svg>